<?xml version="1.0" encoding="utf-8"?>
<!-- Generator: Adobe Illustrator 19.1.0, SVG Export Plug-In . SVG Version: 6.00 Build 0)  -->
<svg version="1.1" id="Layer_1" xmlns="http://www.w3.org/2000/svg" xmlns:xlink="http://www.w3.org/1999/xlink" x="0px" y="0px"
	 viewBox="0 0 558.9 783.1" style="enable-background:new 0 0 558.9 783.1;" xml:space="preserve">
<style type="text/css">
	.st0{fill:#010101;stroke:#000000;stroke-width:0.5;stroke-miterlimit:10;}
	.st1{fill:#010101;}
</style>
<g>
	<path class="st0" d="M130,491L130,491"/>
	<path class="st0" d="M85,731L85,731"/>
	<path class="st0" d="M463.7,357.2c0.2,2.8,0.5,5.6,0.7,8.3C464.8,362.7,464.6,359.8,463.7,357.2z"/>
	<path class="st0" d="M515.3,108.6c-2.6-12.6-15.9-19.3-27.7-24.3C447,67,406.4,49.9,365.7,32.7c1.2,2.2,2.4,4.3,3.6,6.5l112.3,47
		c13.1,5.5,27.9,13,30.6,26.8c41.2,206.6,51.8,419.2,31.5,628.9c-0.3,2.6-0.8,5.6-3.1,6.7c-1.6,0.8-3.5,0.4-5.3,0
		c-27.5-6.7-55.1-13.3-82.6-20c6.3-28.2,11.9-56.6,16.7-85.1c4.2-25.2,7.8-50.5,8.7-76c0.9-27.8-1.4-55.5-3.7-83.2
		c-3.3-39.6-6.7-79.2-10-118.9c-0.5,3.8-2.1,7.4-4.6,10.2c5.5-58.2,10.9-116.4,16.4-174.6c-24.1,62.3-22.7,131.3-16.2,197.8
		c6.4,66.5,17.6,133.1,11.8,199.6c-3.6,41.4-13.6,81.9-23.6,122.2c-2.1,8.6,6.1,15.9,13.4,20.8c10.5,7.2,23.3,14.5,35.1,12.8
		c2.4-1.5,5.1-2.4,7.9-2.6c5.8-2.8,13.9-5.9,15.4-0.1c-1.3,1.4-3.2,2.3-5.1,2.7c1.8,1.2,3.4,2.6,4.7,4.4c0.7-1.2,1.1-2.6,1.1-4
		c6.2,5.9,17.3,2.9,22.6-4c5.3-6.8,6.3-15.9,7-24.5C568.6,520.1,556.8,311.3,515.3,108.6z M465.9,252.3c0.7,0,0.7,1.3,0,1.3
		C465.3,253.6,465.2,252.3,465.9,252.3z M492.9,749.8c-8.1,1.4-15.7-3.7-22.3-8.6c-2.6-1.9-5.3-3.9-7.9-5.8c4.9,1.4,10,2.1,15.1,2.2
		c3.4,0.1,5.7,4.5,9,3.9C491,740.7,494.9,746,492.9,749.8z M504.5,745.5c-0.8,1.5-1.7,3-2.5,4.5c-1.8,0.5-3.7-1.3-3.7-3.2
		c0-1.9,1.2-3.6,2.7-4.8c1.7,0.4,3.2,1.7,3.6,3.5L504.5,745.5z M525.9,751l0.2,0.1c1.4-0.4,3.7-0.1,3.5,1.3
		C528.3,753.6,525.9,752.6,525.9,751z"/>
	<path class="st0" d="M451.1,383.5c-3.7,44.1-4.3,88.5-1.7,132.7c0.7,6.1,0.4,12.2,0,18.6c0,0.4-0.1,0.8-0.1,1.2
		c0.8,6.6,1,13.2,1,19.9c2.3,18.2,3.6,36.5,3.5,54.9c-0.1,14.1-4.1,31.8-17.9,34.4c-42.4,7.9-85.8,10.8-128.9,8.7
		c-4-0.2-8.1-0.5-11.5-2.5c-6.9-4-15.5-3.1-23.4-2.2c-47,4.9-94.8,2.8-141.1-6.4c-5.1-1-10.6-2.4-13.4-6.8
		c-2.1-3.4-1.9-7.6-1.7-11.5c2-32.4,3.9-64.8,5.9-97.2c-1.7,0.7-3.4,1.5-5,2.2c3.9-36.2,1.9-73-5.9-108.5
		c2.8,68.6,5.5,137.4,0.2,205.9c-0.6,7.6,4.9,14.6,11.6,18.2c6.7,3.6,14.5,4.4,22.1,5.2c44.6,4.5,89.7,9.1,134,2.8
		c4.7-0.7,10.2-1.1,13.3,2.4c2.5,2.9,6.8,3.3,10.6,3.4c41.1,1.5,82.4-1,123-7.6c7.1-1.1,14.4-2.5,20.6-6.1
		c6.2-3.7,11.2-10.2,11-17.4C455.2,546.3,453.2,464.9,451.1,383.5z"/>
	<path class="st0" d="M129,497.6c0.7,0,0.7-1.3,0-1.3C128.3,496.3,128.3,497.6,129,497.6z"/>
	<path class="st0" d="M65.4,105.2c-0.7-0.3-1.3,1.1-0.6,1.4S66.1,105.5,65.4,105.2z"/>
	<path class="st0" d="M121.1,492.4"/>
	<path class="st0" d="M274.9,554.6c0.9-0.2,0.4-1.9-0.4-1.6S274,554.9,274.9,554.6z"/>
	<path class="st0" d="M105.5,711.4c-21.6-72.3-23.7-150.3-6.1-223.7c13.2-54.8,3.4-112.1,1.8-168.4c-1-34.6,1-69.2-1.4-103.8
		s-9.4-69.5-27.1-99.2c14.5,37.5,22.6,77.4,23.9,117.5c1.2,35,2.3,70,3.5,104.9c0.6,19.2,1.3,38.3,1.1,57.5
		c-0.2,39.7-3.7,79.3-10.4,118.4c0.6-12.5,1.1-25,1.7-37.5c0.1-1.7-0.1-3.8-1.6-4.6c-0.3-0.2-0.6-0.2-0.9-0.1
		c2.1-9.1,2.4-18.6,0.7-27.8c-8.7,93.1-17.1,189.5,13.6,277.9c-30.5-1.4-61.4,5.9-88.1,20.9c-2.6,1.4-4.7-2.6-4.9-5.5
		c-15.4-173.1-5.6-348.4,29-518.7c-5.8,5.2-7.6,13.5-9,21.1C1.2,404.3-7.1,572.2,6.7,738.3c0.6,6.7,7.2,11.6,13.9,12.5
		s13.4-1.2,19.8-3.3c0.7,0.5,1.2,1.1,1.6,1.8c1-0.6,2.1-1.1,3.3-1.5c0-0.1,0-0.2,0-0.3c0.5-2.2,2.4-4.4,4.7-4.4
		c1.2,0,2.3-1.1,2.2-2.3c-0.1-1.2-1.2-2.2-2.4-2.1c-1-3.4,1.6-7.3,5.1-7.7c3.5-0.4,6.9,3,6.6,6.5c-0.2,2,2.8,2.4,4.8,2
		c2.2-0.5,4.5-1,6.7-1.5c1.1-0.2,2.3-0.5,3-1.4c0.7-0.9,0.5-2.5-0.6-2.8c-2,1.1-4.1,2.3-6.4,2.1c-2.3-0.2-4.5-2.3-4-4.5
		c10.4-2.9,21.3-3.8,32-2.8c-8.4,7.1-18.5,12.2-29.2,14.8c-2.8,0.7-6.5,0.8-7.7-1.8c-3.8-0.2-7.5,2.1-9.4,5.4c1.1,0,2.2,0.1,3.3,0.3
		c0,0,0,0,0,0c12.2-0.1,24.8-0.4,35.7-6C100.7,735.6,109,723.1,105.5,711.4z M23.4,744.3c0.6-1.1,2-1.6,3.2-2
		c4.1-1.2,8.3-1.9,12.6-2.1C35.4,744.6,28.8,746.3,23.4,744.3z"/>
	<path class="st0" d="M129.1,485.3c0.5-1.1,1-2.2,1.5-3.3c1.7,0.9,0.7,4-1.1,3.9L129.1,485.3z"/>
	<path class="st0" d="M152.1,61.5c17.7-7,34-18.5,52.8-21.5c-16.9,9.7-34.5,18-52.7,24.8c-30,11.3-62.7,19.1-86.4,40.7
		c-0.8-3.6,2.5-6.7,5.5-8.8c15.4-10.7,32.3-19.3,50-25.2C131.6,68,142.1,65.4,152.1,61.5z"/>
	<path class="st0" d="M212.7,36.3c-1.1,1.3-3,2.6-4.1,1.3c0.6-9.6,12.9-13.6,18.1-21.8c1.9-3,2.7-6.5,4.5-9.5
		c1.7-3.1,4.9-5.8,8.4-5.4c31.2,3.8,63,3.6,94.2-0.6c4.8-0.6,9.4,2.6,11.8,6.8c2.4,4.1,3.1,9,3.8,13.8c-3.8-0.6-5.3-5.2-6.4-8.9
		c-1.1-3.7-3.5-8.1-7.4-7.6c-29,3.7-58.5,4.1-87.6,1.3c-3.1-0.3-6.4-0.6-9.1,0.9c-1.6,0.9-2.9,2.3-4.1,3.8
		C227.3,19,220,27.7,212.7,36.3z"/>
	<path class="st0" d="M513.5,129.4c-1.1-0.7-1.4-2.4-0.6-3.4c1.5,0.5,2,2.6,0.9,3.7L513.5,129.4z"/>
	<path class="st0" d="M36.4,200.7c2.7-15.3,6.1-30.4,10.3-45.3c3.4-12,7.3-24,12.5-35.3c2,0.3,1.8,3.2,1.1,5.1
		c-10.9,28.9-18.8,58.8-23.8,89.3C34.9,210.1,35.6,205.2,36.4,200.7z"/>
	<path class="st0" d="M274.6,635.4c-0.1,1-0.7,1.9-1.6,2.4c-0.5-0.8-1-1.8-0.6-2.7c0.4-0.9,2.2-0.6,1.9,0.4L274.6,635.4z"/>
	<path class="st0" d="M282.7,628.3c-1.8-0.6-3.7-1.1-5.5-1.7c6.9-1.7,8.4-10.8,8.4-17.9c-0.1-38.8-0.2-77.5-0.3-116.3
		c4,9,4,19.2,3.9,29.1c-0.3,28-0.5,56-0.8,84C288.4,613.6,288,622.3,282.7,628.3z"/>
	<path class="st0" d="M479,158c-2.3,16.7-7.1,33-11.8,49.1c-0.6,2-1.6,4.3-3.6,4.6C466.7,193.3,471.9,175.3,479,158z"/>
	<path class="st0" d="M273.8,483.9c0.8-0.4,1.4,0.8,1.5,1.7c2,21.1,2.2,42.4,0.5,63.5c-2.7-2-2.9-5.9-2.8-9.2
		C273.2,521.2,273.5,502.5,273.8,483.9z"/>
	<path class="st0" d="M360.1,37.9c0.3,1,0.6,2.1,0.9,3.1c-2.2-0.2-3.9-2.6-3.5-4.8c0.8,0.5,1.7,1,2.5,1.5L360.1,37.9z"/>
	<path class="st0" d="M275.8,586.9c1,11.3,0.8,22.7-0.6,34c-0.2,1.7-1.5,3.9-2.9,3c0.4-11.2,0.9-22.4,1.3-33.6
		C273.7,588.8,274.3,586.8,275.8,586.9z"/>
	<path class="st0" d="M475.8,450.7c-1,1.2-3.1,0.2-3.6-1.2c-0.4-1.5,0.2-3,0.8-4.4c1.4,1.4,2.3,3.4,2.5,5.4L475.8,450.7z"/>
	<path class="st0" d="M287.4,638.5c0.5,1.3-0.2,2.8-1.5,3.3c-1.3,0.5-2.8-0.2-3.4-1.4c1.1-0.8,2-2.1,2.3-3.4
		C286,636.8,287.8,637.3,287.4,638.5L287.4,638.5z"/>
	<path class="st0" d="M537.7,412.4c0.6-5.8,1.1-11.7,1.7-17.5c0.1-1.4,0.4-3.1,1.5-4C542.2,398.2,541,405.8,537.7,412.4z"/>
	<path class="st0" d="M356.9,29.1c-1.6-2.2-2.4-5-2.1-7.7c3.5,2.8,5.9,6.8,6.9,11.1c-2,1.1-4.8-0.8-4.7-3L356.9,29.1z"/>
	<path class="st0" d="M44.4,209c-0.2,3.1-1.1,6.2-2.6,9c-0.7-3.1,0-6.6,2.1-9.1L44.4,209z"/>
	<path class="st0" d="M18.2,437.9c-0.3-0.5,0.6-0.9,1-0.5c0.4,0.4,0.3,1.1,0.1,1.6c-0.8,2.7-2.4,5.2-4.6,7.1c-0.2-3,1.1-6,3.5-7.8
		L18.2,437.9z"/>
	<path class="st0" d="M274.8,575.2c-1.4-3.9-1.3-8.3,0.4-12.1C277.2,566.8,277.1,571.7,274.8,575.2z"/>
	<path class="st0" d="M55.4,621.4c0.9-1.8,1.8-3.7,2.8-5.5c0.1,3.3-1.1,6.5-3.3,8.9C54.1,623.9,54.4,622.2,55.4,621.4L55.4,621.4z"
		/>
	<path class="st0" d="M291.8,100.4c-2.7-0.1-5.4-0.1-8.1-0.3h0c-0.4,0.1-0.8,0.1-1.2,0.1l0,0c-0.6,1.1-1.4,2.2-2.3,3.2
		c-3.1,6-3.3,13.1-3.4,19.9c-0.3,17.2-0.6,34.5-1,51.7c-0.2,13-0.5,26.1-0.7,39.1c-1.6,88.1-3.3,176.2-0.3,264.2
		c1.2-82,2.6-164,3.9-246c0.5-31.6,1-63.2,1.6-94.8c0.1-7,0.2-14,0.3-21c0.1-4.1,0.3-8.7,3.3-11.5s9.4-1.4,9.2,2.7
		c-7.2,128-9.5,256.3-7.1,384.5c3.6-8.5,3.5-18,3.4-27.3c-1.6-119.1,1.1-238.3,8-357.2C297.7,104.3,295.2,101.9,291.8,100.4z"/>
</g>
<g>
	<g>
		<path d="M232,38.6c35,0.6,69.9,1.1,104.9,1.7c1.6,0,1.6-2.5,0-2.5c-35-0.6-69.9-1.1-104.9-1.7C230.4,36.1,230.4,38.6,232,38.6
			L232,38.6z"/>
	</g>
</g>
<path d="M232.2,36.2c0.4-1.6-2-2.2-2.4-0.7l0,0c-2.6,9.2,3.2,18.2,11.3,22.4c11.3,5.8,25.7,4.6,38,5c13.3,0.5,28.5,3,41.6-0.7
	c9.7-2.8,18.1-12.5,17.4-23.1"/>
<g>
	<g>
		<path d="M206.7,38.6c2.9,24.5,16.7,46.6,37.5,59.9c1.4,0.9,2.6-1.3,1.3-2.2c-20-12.8-33.4-34.2-36.3-57.7
			C209,37.1,206.5,37,206.7,38.6L206.7,38.6z"/>
	</g>
</g>
<g>
	<g>
		<path d="M360.4,32.5c-0.8,21.3-6.3,45.2-25.8,56.8c-8.5,5.1-17.9,7.8-27.6,9.4c-11.8,2-24.6,3.7-36.6,2.4c-9-1-20.4-5-24.8-13.7
			c-2.1-4.1-2-9.3,0.1-13.4c3.2-6.3,10.5-7.6,16.8-8.6c11.4-1.8,23-0.9,34.4-0.7c9.7,0.2,21.2,0.2,29.7-5.1
			c18.9-11.7,13.5-38.5,10-56.4c-0.3-1.6-2.7-0.9-2.4,0.7c2.3,11.5,5.2,25.5,2.4,37.2c-1,4.2-3.1,8.3-5.8,11.6
			c-5.2,6.3-12.7,8.2-20.5,9.1c-12.5,1.5-25.1-0.4-37.6,0.2c-8.7,0.4-21.1,0.7-27.2,7.9c-5.4,6.4-4.9,16.1,0.4,22.3
			c5.7,6.6,14.4,10.1,22.9,11.3c11.8,1.6,24.3-0.1,36-1.8c9.9-1.5,19.6-3.9,28.4-8.6c10.3-5.5,17.5-13.2,22.2-23.9
			c5-11.5,7.1-24.1,7.5-36.6C363,30.9,360.5,30.9,360.4,32.5L360.4,32.5z"/>
	</g>
</g>
<g>
	<g>
		<path d="M262.8,66.7c8.9-1,17.9-2.1,26.8-3.1c1.6-0.2,1.6-2.7,0-2.5c-8.9,1-17.9,2.1-26.8,3.1C261.2,64.4,261.2,66.9,262.8,66.7
			L262.8,66.7z"/>
	</g>
</g>
<g>
	<g>
		<path d="M238.9,4.9c-5.5,10-8.8,20.9-9.6,32.3c-0.1,1.6,2.4,1.6,2.5,0c0.8-11,4-21.4,9.3-31.1C241.8,4.7,239.7,3.5,238.9,4.9
			L238.9,4.9z"/>
	</g>
</g>
<g>
	<g>
		<path d="M334.7,4.8c1.6,0,1.6-2.5,0-2.5C333.1,2.3,333.1,4.8,334.7,4.8L334.7,4.8z"/>
	</g>
</g>
<g>
	<g>
		<path d="M336.6,40.4c1.6,0,1.6-2.5,0-2.5C335,37.9,335,40.4,336.6,40.4L336.6,40.4z"/>
	</g>
</g>
<g>
	<path d="M271,83.1c0,0,0,0.2,0,0.6c0,0.4-0.1,0.9-0.2,1.6c-0.1,0.7-0.3,1.6-0.7,2.5c-0.4,0.9-1.1,2-2.1,2.9c-1,0.9-2.5,1.5-4,1.6
		c-0.4,0-0.7,0-1.2,0c-0.3-0.1-0.7-0.1-1.1-0.2c-0.8-0.2-1.5-0.6-2.2-1c-1.4-0.9-2.5-2-3.4-3.3c-0.9-1.4-1.5-2.9-1.8-4.7
		c-0.1-0.7-0.1-1.7,0.1-2.6c0.2-0.9,0.5-1.7,1-2.5c0.9-1.5,2.3-2.8,3.9-3.5c1.5-0.8,3.4-1,4.8-0.8c0.9,0.1,1.6,0.3,2.3,0.7
		c0.7,0.3,1.3,0.7,1.8,1.1c1,0.9,1.7,2,2.1,2.9c0.4,1,0.6,1.8,0.7,2.5c0.1,0.7,0.2,1.2,0.2,1.6C271,82.9,271,83.1,271,83.1L271,83.1
		z M270.7,83.1c0,0,0-0.2,0-0.5c0-0.4-0.1-0.9-0.4-1.5c-0.3-0.6-0.7-1.3-1.3-1.9c-0.6-0.6-1.5-1.2-2.4-1.6c-0.5-0.2-0.9-0.4-1.4-0.5
		c-0.5-0.2-1-0.2-1.5-0.3c-0.1,0-0.3,0-0.5,0l-0.3,0l-0.1,0c-0.1,0,0.1,0,0.1,0l0,0l0,0l-0.1,0c-0.3,0-0.6,0-0.8,0.1
		c-0.6,0.1-1.1,0.2-1.7,0.4c-1.1,0.4-2.1,1.2-2.9,2.2c-0.4,0.5-0.7,1.1-1,1.7c-0.3,0.6-0.5,1.2-0.6,2c-0.1,0.6-0.1,1.4,0.1,2.1
		c0.2,0.7,0.4,1.4,0.8,2c0.4,0.6,0.9,1.1,1.5,1.5c0.6,0.4,1.2,0.7,1.9,0.8c0.6,0.1,1.3,0.2,1.9,0.2c0.2,0,0.6,0,1,0
		c0.3,0,0.5-0.1,0.8-0.1c1.1-0.2,2.1-0.5,3-1c0.9-0.4,1.7-1,2.3-1.6c0.6-0.6,1-1.3,1.3-1.9c0.2-0.6,0.3-1.1,0.4-1.5
		C270.7,83.2,270.7,83,270.7,83.1L270.7,83.1z"/>
</g>
<g>
	<g>
		<path class="st1" d="M282.1,104.7c1.5,0.1,3,0.3,4.6,0.4c1.7,0.2,3.4,0.4,5.1,0.5l-0.1,20.2l-2.3,10.8l-1.9,8.6h-2.3l-0.7-4.7
			l-2.3-14.5c0-2.9,0-7.3,0-11.6C282.1,110.9,282.1,107.4,282.1,104.7 M280.1,102.6c0,5.9,0.1,17.7,0.1,23.5
			c1.1,7,2.2,14.1,3.3,21.1c1.9,0,3.7,0,5.6,0c1.5-7.1,3.1-14.1,4.6-21.2l0.1-22.4C289.2,103.7,284.7,102.6,280.1,102.6L280.1,102.6
			z"/>
	</g>
	<g>
		<g>
			<path class="st1" d="M285.8,137.7c0,1.1,0,2.3,0,3.4c0,0.8,1.2,0.8,1.2,0c0-1.1,0-2.3,0-3.4C287,136.9,285.8,136.9,285.8,137.7
				L285.8,137.7z"/>
		</g>
	</g>
	<g>
		<g>
			<path class="st1" d="M286.1,119.8c0.7,0,1.4,0,2.1,0c0.8,0,0.8-1.2,0-1.2c-0.7,0-1.4,0-2.1,0
				C285.3,118.5,285.3,119.8,286.1,119.8L286.1,119.8z"/>
		</g>
	</g>
	<g>
		<g>
			<path class="st1" d="M285.2,110.2c0,2.6,0,5.3,0,7.9c0,0.3,0.5,0.3,0.5,0c0-2.6,0-5.3,0-7.9C285.7,109.9,285.2,109.9,285.2,110.2
				L285.2,110.2z"/>
		</g>
	</g>
</g>
<g>
	<g>
		<path class="st1" d="M51.5,749.5c1.1,0.2,2.3,0.3,3.5,0.3c0.8,0,1.5,0,2.3-0.1l0,8.7l-3.3,15.2l-0.9-5.4l-1.5-9.6
			C51.5,756.2,51.5,752.9,51.5,749.5 M48.4,745.5c0,4.7,0,10,0,13.2c1,6.1,1.9,12.1,2.9,18.2h4.8l4-18.3l0-12.8
			c-1.7,0.6-3.5,0.9-5.3,0.9C52.6,746.8,50.4,746.3,48.4,745.5L48.4,745.5z M60.2,745.9L60.2,745.9L60.2,745.9z"/>
	</g>
	<g>
		<g>
			<path class="st1" d="M53.2,768.7c0,1,0,2,0,3c0,0.8,1.2,0.8,1.2,0c0-1,0-2,0-3C54.5,767.9,53.2,767.9,53.2,768.7L53.2,768.7z"/>
		</g>
	</g>
	<g>
		<g>
			<path class="st1" d="M53.6,754c0.6,0,1.2,0,1.8,0c1.6,0,1.6-2.5,0-2.5c-0.6,0-1.2,0-1.8,0C52,751.5,52,754,53.6,754L53.6,754z"/>
		</g>
	</g>
</g>
<g>
	<g>
		<path class="st1" d="M508.7,756.1c1.2,0.2,2.5,0.3,3.7,0.3c0.7,0,1.3,0,2-0.1l0,8.1l-2.6,12.1l-0.7,3.2l-0.9-6l-1.4-9
			C508.7,762.4,508.7,759.3,508.7,756.1 M505.6,752.1c0,4.6,0,9.7,0,12.8c1,6.1,1.9,12.1,2.9,18.2h4.8c1.3-6.1,2.7-12.2,4-18.3
			l0-12.1c-1.6,0.5-3.3,0.8-5,0.8C510,753.5,507.7,753,505.6,752.1L505.6,752.1z M517.4,752.7L517.4,752.7L517.4,752.7z"/>
	</g>
	<g>
		<g>
			<path class="st1" d="M510.4,774.8c0,1,0,2,0,3c0,0.8,1.2,0.8,1.2,0c0-1,0-2,0-3C511.7,774,510.4,774,510.4,774.8L510.4,774.8z"/>
		</g>
	</g>
	<g>
		<g>
			<path class="st1" d="M510.8,760.1c0.6,0,1.2,0,1.8,0c1.6,0,1.6-2.5,0-2.5c-0.6,0-1.2,0-1.8,0
				C509.2,757.6,509.2,760.1,510.8,760.1L510.8,760.1z"/>
		</g>
	</g>
</g>
<path class="st1" d="M264.7,623.8c-26.3,1.5-52.8,0.5-78.9-3.1c-12.4-1.7-24.6-4.2-36.8-6.8c-12-2.6-24.1-4.7-36.4-4
	c-1.6,0.1-1.6,2.6,0,2.5c13.1-0.8,25.8,1.8,38.5,4.5c12,2.6,24.1,4.9,36.3,6.5c25.6,3.4,51.5,4.3,77.3,2.9
	C266.3,626.2,266.3,623.7,264.7,623.8z"/>
<path class="st1" d="M452.7,606.2c-52.6,18.3-109.3,23.5-164.4,14.9c-1.6-0.2-2.3,2.2-0.7,2.4c55.5,8.6,112.6,3.5,165.7-14.9
	C454.8,608.1,454.2,605.7,452.7,606.2z"/>
<path class="st1" d="M285.5,628.5h-9.9c0-0.4-0.1-0.7-0.1-1.1c-0.2-1.6-2.7-1.6-2.5,0c0.1,1.4,0.2,2.8,0.3,4.2
	c-0.5,2.1-0.8,4.4,0.1,6.3c-0.1,4-0.5,8-1.3,12.1c-0.3,1.6,2.1,2.2,2.4,0.7c0.6-3.4,1.1-6.9,1.3-10.3c1.6,0.8,3.6,0.7,4.9-0.7
	c1.1-1.2-0.7-2.9-1.8-1.8c-0.9,1-2.3,0.3-3-0.7c0-1.8,0-3.6-0.1-5.4c0-0.1,0-0.2,0.1-0.3c0.1-0.2,0-0.4,0-0.6h9.6
	C287.2,631,287.2,628.5,285.5,628.5z"/>
<path class="st1" d="M288.1,652.3c-0.7-4.4-0.9-8.7-0.5-13.1c0.1-1.6-2.4-1.6-2.5,0c-0.4,4.6-0.2,9.2,0.6,13.8
	C286,654.5,288.4,653.9,288.1,652.3z"/>
</svg>
