<?xml version="1.0" encoding="UTF-8" standalone="no"?>
<svg width="747px" height="110px" viewBox="0 0 747 110" version="1.1" xmlns="http://www.w3.org/2000/svg" xmlns:xlink="http://www.w3.org/1999/xlink" xmlns:sketch="http://www.bohemiancoding.com/sketch/ns">
    <!-- Generator: Sketch 3.2.2 (9983) - http://www.bohemiancoding.com/sketch -->
    <title>Layer1</title>
    <desc>Created with Sketch.</desc>
    <defs></defs>
    <g id="Page-1" stroke="none" stroke-width="1" fill="none" fill-rule="evenodd" sketch:type="MSPage">
        <g id="Layer1" sketch:type="MSLayerGroup" transform="translate(-1.000000, -1.000000)" fill="#000000">
            <g id="Group" transform="translate(150.000000, 0.000000)" sketch:type="MSShapeGroup">
                <path d="M0.961,92.6667 C9.669,105.194 20.058,111 34.878,111 C51.989,111 65.128,99.6944 65.128,83.1944 C65.128,68.6806 56.267,61.3472 45.419,56.6111 C29.531,49.4306 8.906,46.375 8.906,27.4306 C8.906,10.93056 23.878,3.75 34.572,3.75 C43.281,3.75 51.683,6.65278 58.558,13.8333 L60.544,11.6944 C55.961,7.11111 47.711,1 34.572,1 C22.656,1 5.85,8.63889 5.85,27.4306 C5.85,48.3611 28.308,51.875 44.656,59.3611 C54.281,63.9444 62.072,70.6667 62.072,83.1944 C62.072,98.7778 49.392,108.25 35.031,108.25 C18.531,108.25 9.058,99.6944 3.406,90.8333 L0.961,92.6667 L0.961,92.6667 Z" id="Shape"></path>
                <path d="M167.489,109.472 L170.544,109.472 L124.711,2.52778 L123.183,2.52778 L77.35,109.472 L80.406,109.472 L95.989,72.9583 L151.753,72.9583 L167.489,109.472 L167.489,109.472 Z M123.947,7.875 L150.683,70.2083 L97.211,70.2083 L123.947,7.875 L123.947,7.875 Z" id="Shape"></path>
                <path d="M188.114,51.4167 L188.114,5.27778 L223.1,5.27778 C232.267,5.27778 237.767,7.72222 241.892,11.5417 C246.322,15.8194 249.225,21.7778 249.225,28.3472 C249.225,34.9167 246.322,40.875 241.892,45.1528 C237.767,48.9722 232.267,51.4167 223.1,51.4167 L188.114,51.4167 L188.114,51.4167 Z M223.406,54.1667 C233.336,54.1667 239.753,51.4167 244.336,46.9861 C249.225,42.25 252.281,35.6806 252.281,28.3472 C252.281,21.0139 249.225,14.4444 244.336,9.70833 C239.753,5.27778 233.336,2.52778 223.406,2.52778 L185.058,2.52778 L185.058,109.472 L188.114,109.472 L188.114,54.1667 L223.406,54.1667 L223.406,54.1667 Z" id="Shape"></path>
                <path d="M333.253,109.472 L336.308,109.472 L290.475,2.52778 L288.947,2.52778 L243.114,109.472 L246.169,109.472 L261.753,72.9583 L317.517,72.9583 L333.253,109.472 L333.253,109.472 Z M289.711,7.875 L316.447,70.2083 L262.975,70.2083 L289.711,7.875 L289.711,7.875 Z" id="Shape"></path>
                <path d="M404.294,2.52778 L383.349,51.4014 L334.606,2.52778 L330.637,2.52778 L382.159,54.1778 L358.461,109.472 L361.517,109.472 L407.35,2.52778 L404.294,2.52778 L404.294,2.52778 Z" id="Shape"></path>
                <path d="M417.281,56 C417.281,26.8194 438.211,3.75 467.086,3.75 C495.961,3.75 516.892,26.8194 516.892,56 C516.892,85.1806 495.961,108.25 467.086,108.25 C438.211,108.25 417.281,85.1806 417.281,56 L417.281,56 Z M414.225,56 C414.225,87.1667 436.836,111 467.086,111 C497.336,111 519.947,87.1667 519.947,56 C519.947,24.8333 497.336,1 467.086,1 C436.836,1 414.225,24.8333 414.225,56 L414.225,56 Z" id="Shape"></path>
                <path d="M543.628,2.52778 L540.572,2.52778 L540.572,109.472 L597.1,109.472 L597.1,106.722 L543.628,106.722 L543.628,2.52778 L543.628,2.52778 Z" id="Shape"></path>
            </g>
            <rect id="Rectangle-path" sketch:type="MSShapeGroup" x="81" y="1" width="10" height="110"></rect>
            <path d="M71,85.1421 L71,111 L61,111 L61,75.1421 L71,85.1421 L71,85.1421 Z" id="Shape" sketch:type="MSShapeGroup"></path>
            <path d="M71,71 L61,61 L61,1 L71,1 L71,71 L71,71 Z" id="Shape" sketch:type="MSShapeGroup"></path>
            <path d="M11,25.1421 L11,111 L1,111 L1,15.1421 L11,25.1421 L11,25.1421 Z M11,11 L1,1 L11,1 L11,11 L11,11 Z" id="Shape" sketch:type="MSShapeGroup"></path>
            <path d="M51,65.1421 L51,111 L41,111 L41,55.1421 L51,65.1421 L51,65.1421 Z" id="Shape" sketch:type="MSShapeGroup"></path>
            <path d="M51,51 L41,41 L41,1 L51,1 L51,51 L51,51 Z" id="Shape" sketch:type="MSShapeGroup"></path>
            <path d="M31,45.1421 L31,111 L21,111 L21,35.1421 L31,45.1421 L31,45.1421 Z" id="Shape" sketch:type="MSShapeGroup"></path>
            <path d="M31,31 L21,21 L21,1 L31,1 L31,31 L31,31 Z" id="Shape" sketch:type="MSShapeGroup"></path>
            <rect id="Rectangle-path" sketch:type="MSShapeGroup" x="101" y="1" width="10" height="110"></rect>
        </g>
    </g>
</svg>