<?xml version="1.0" standalone="no"?>
<!DOCTYPE svg PUBLIC "-//W3C//DTD SVG 1.1//EN" "http://www.w3.org/Graphics/SVG/1.1/DTD/svg11.dtd">
<svg width="100%" height="100%" viewBox="0 0 746 110" version="1.1" xmlns="http://www.w3.org/2000/svg" xmlns:xlink="http://www.w3.org/1999/xlink" xml:space="preserve" style="fill-rule:evenodd;clip-rule:evenodd;stroke-linejoin:round;stroke-miterlimit:1.41421;">
    <g id="Layer1">
        <g>
            <path d="M149.961,91.6667C158.669,104.194 169.058,110 183.878,110C200.989,110 214.128,98.6944 214.128,82.1944C214.128,67.6806 205.267,60.3472 194.419,55.6111C178.531,48.4306 157.906,45.375 157.906,26.4306C157.906,9.93056 172.878,2.75 183.572,2.75C192.281,2.75 200.683,5.65278 207.558,12.8333L209.544,10.6944C204.961,6.11111 196.711,-1.42109e-14 183.572,-1.42109e-14C171.656,-1.42109e-14 154.85,7.63889 154.85,26.4306C154.85,47.3611 177.308,50.875 193.656,58.3611C203.281,62.9444 211.072,69.6667 211.072,82.1944C211.072,97.7778 198.392,107.25 184.031,107.25C167.531,107.25 158.058,98.6944 152.406,89.8333L149.961,91.6667Z" style="fill:black;fill-rule:nonzero;"/>
            <path d="M316.489,108.472L319.544,108.472L273.711,1.52778L272.183,1.52778L226.35,108.472L229.406,108.472L244.989,71.9583L300.753,71.9583L316.489,108.472ZM272.947,6.875L299.683,69.2083L246.211,69.2083L272.947,6.875Z" style="fill:black;fill-rule:nonzero;"/>
            <path d="M337.114,50.4167L337.114,4.27778L372.1,4.27778C381.267,4.27778 386.767,6.72222 390.892,10.5417C395.322,14.8194 398.225,20.7778 398.225,27.3472C398.225,33.9167 395.322,39.875 390.892,44.1528C386.767,47.9722 381.267,50.4167 372.1,50.4167L337.114,50.4167ZM372.406,53.1667C382.336,53.1667 388.753,50.4167 393.336,45.9861C398.225,41.25 401.281,34.6806 401.281,27.3472C401.281,20.0139 398.225,13.4444 393.336,8.70833C388.753,4.27778 382.336,1.52778 372.406,1.52778L334.058,1.52778L334.058,108.472L337.114,108.472L337.114,53.1667L372.406,53.1667Z" style="fill:black;fill-rule:nonzero;"/>
            <path d="M482.253,108.472L485.308,108.472L439.475,1.52778L437.947,1.52778L392.114,108.472L395.169,108.472L410.753,71.9583L466.517,71.9583L482.253,108.472ZM438.711,6.875L465.447,69.2083L411.975,69.2083L438.711,6.875Z" style="fill:black;fill-rule:nonzero;"/>
            <path d="M553.294,1.52778L532.349,50.4014L483.606,1.52778L479.637,1.52778L531.159,53.1778L507.461,108.472L510.517,108.472L556.35,1.52778L553.294,1.52778Z" style="fill:black;fill-rule:nonzero;"/>
            <path d="M566.281,55C566.281,25.8194 587.211,2.75 616.086,2.75C644.961,2.75 665.892,25.8194 665.892,55C665.892,84.1806 644.961,107.25 616.086,107.25C587.211,107.25 566.281,84.1806 566.281,55ZM563.225,55C563.225,86.1667 585.836,110 616.086,110C646.336,110 668.947,86.1667 668.947,55C668.947,23.8333 646.336,-1.42109e-14 616.086,-1.42109e-14C585.836,-1.42109e-14 563.225,23.8333 563.225,55Z" style="fill:black;fill-rule:nonzero;"/>
            <path d="M692.628,1.52778L689.572,1.52778L689.572,108.472L746.1,108.472L746.1,105.722L692.628,105.722L692.628,1.52778Z" style="fill:black;fill-rule:nonzero;"/>
        </g>
        <rect x="80" y="-3.55271e-15" width="10" height="110" style="fill:black;"/>
        <path d="M70,84.1421L70,110L60,110L60,74.1421L70,84.1421Z" style="fill:black;"/>
        <path d="M70,70L60,60L60,0L70,-7.10543e-15L70,70Z" style="fill:black;"/>
        <path d="M10,24.1421L10,110L-1.06581e-14,110L-1.33227e-15,14.1421L10,24.1421ZM10,10L-1.33227e-15,3.55271e-15L10,-1.06581e-14L10,10Z" style="fill:black;"/>
        <path d="M50,64.1421L50,110L40,110L40,54.1421L50,64.1421Z" style="fill:black;"/>
        <path d="M50,50L40,40L40,0L50,-7.10543e-15L50,50Z" style="fill:black;"/>
        <path d="M30,44.1421L30,110L20,110L20,34.1421L30,44.1421Z" style="fill:black;"/>
        <path d="M30,30L20,20L20,0L30,-7.10543e-15L30,30Z" style="fill:black;"/>
        <rect x="100" y="-3.55271e-15" width="10" height="110" style="fill:black;"/>
    </g>
</svg>
